<?xml version="1.0" encoding="utf-8"?>
<!-- Generator: Adobe Illustrator 16.0.4, SVG Export Plug-In . SVG Version: 6.00 Build 0)  -->
<!DOCTYPE svg PUBLIC "-//W3C//DTD SVG 1.1//EN" "http://www.w3.org/Graphics/SVG/1.1/DTD/svg11.dtd">
<svg version="1.1" xmlns="http://www.w3.org/2000/svg" xmlns:xlink="http://www.w3.org/1999/xlink" x="0px" y="0px" width="100px"
	 height="100px" viewBox="0 0 100 100" enable-background="new 0 0 100 100" xml:space="preserve">
<g id="Logo">
</g>
<g id="Layer_1">
	<path fill-rule="evenodd" clip-rule="evenodd" fill="#FFFFFF" d="M-0.5,0H60L10,50l50,50H-0.5V0z M85,0h14.5v25H80
		c-1.366,0-2.55,0.5-3.55,1.5C75.483,27.467,75,28.633,75,30c0,1.133,0.316,2.117,0.95,2.95c0.133,0.2,0.3,0.4,0.5,0.6
		c1,0.967,2.184,1.45,3.55,1.45h19.5v65H85L70,85h10c1.4,0,2.583-0.483,3.55-1.45c0.2-0.2,0.384-0.399,0.55-0.6
		C84.7,82.116,85,81.134,85,80c0-1.366-0.483-2.533-1.45-3.5C82.583,75.5,81.4,75,80,75H60L35,50L85,0z"/>
</g>
</svg>
